<?xml version="1.0" encoding="utf-8"?>
<!-- Generator: Adobe Illustrator 24.2.0, SVG Export Plug-In . SVG Version: 6.00 Build 0)  -->
<svg version="1.1"
	 id="Layer_1" inkscape:version="0.92.4 (5da689c313, 2019-01-14)" sodipodi:docname="Photoshop_2020.svg" xmlns:cc="http://creativecommons.org/ns#" xmlns:dc="http://purl.org/dc/elements/1.1/" xmlns:inkscape="http://www.inkscape.org/namespaces/inkscape" xmlns:ns="http://ns.adobe.com/SaveForWeb/1.0/" xmlns:rdf="http://www.w3.org/1999/02/22-rdf-syntax-ns#" xmlns:sodipodi="http://sodipodi.sourceforge.net/DTD/sodipodi-0.dtd" xmlns:svg="http://www.w3.org/2000/svg"
	 xmlns="http://www.w3.org/2000/svg" xmlns:xlink="http://www.w3.org/1999/xlink" x="0px" y="0px" viewBox="-96 -99.75 512 512"
	 enable-background="new -96 -99.75 512 512" xml:space="preserve">
<g>
	
		<sodipodi:namedview  bordercolor="#666666" borderopacity="1" fit-margin-bottom="0" fit-margin-left="0" fit-margin-right="0" fit-margin-top="0" gridtolerance="10" guidetolerance="10" id="namedview1580" inkscape:current-layer="Layer_1" inkscape:cx="210.13804" inkscape:cy="134.0715" inkscape:guide-bbox="true" inkscape:pageopacity="0" inkscape:pageshadow="2" inkscape:window-height="1017" inkscape:window-maximized="1" inkscape:window-width="1920" inkscape:window-x="1912" inkscape:window-y="-8" inkscape:zoom="1.008547" objecttolerance="10" pagecolor="#ffffff" showgrid="true" showguides="true">
		<inkscape:grid  id="grid2369" originx="670" originy="333" type="xygrid"></inkscape:grid>
		<sodipodi:guide  id="guide2373" inkscape:locked="false" orientation="1,0" position="160,203.25003"></sodipodi:guide>
	</sodipodi:namedview>
	<g id="g2285" transform="matrix(0.3900156,0,0,0.39,0,107.5)">
		<path id="path2277" inkscape:connector-curvature="0" fill="#00005B" d="M37.637-430.286h745.204
			c112.939,0,204.297,91.348,204.297,204.3v716.405c0,112.944-91.358,204.292-204.297,204.292H37.637
			c-112.954,0-204.297-91.348-204.297-204.292v-716.405C-166.66-338.938-75.317-430.286,37.637-430.286z"/>
		<g id="g2283">
			<path id="path2279" inkscape:connector-curvature="0" fill="#9999FF" d="M286.487,242.92H107.832L71.385,356.318
				c-0.901,4.508-4.949,7.203-9.005,6.75h-90.443c-5.403,0-6.757-2.694-5.403-8.552l154.798-444.6
				c1.355-4.949,2.701-9.898,4.956-15.747c2.247-9.906,4.048-20.249,4.048-30.608c-0.447-2.247,1.348-4.942,4.048-5.396
				c0.447,0,0.901,0,1.348,0h123.305c3.149,0,5.848,1.354,6.295,4.048L439.938,355.41c1.346,5.417,0,7.658-4.956,7.658H334.635
				c-3.148,0.453-6.75-1.802-7.65-5.403L286.487,242.92z M135.732,147.062h121.951c-2.694-9.897-6.749-22.05-11.251-34.641
				c-4.495-13.06-8.544-27.006-13.045-41.406c-4.949-14.847-8.997-29.246-13.953-44.1c-4.949-14.847-8.997-28.8-13.045-42.754
				c-4.048-13.499-7.204-26.09-10.797-37.343h-0.901c-4.502,20.695-9.459,41.398-16.208,62.094
				c-7.195,22.949-14.399,47.254-22.049,71.106C150.584,104.317,142.934,126.82,135.732,147.062z"/>
			<path id="path2281" inkscape:connector-curvature="0" fill="#9999FF" d="M808.492-15.838v294.747c0,13.06,0,24.305,0.439,34.656
				c0.454,9.898,0.901,18.901,1.354,26.545c0.901,7.658,1.355,12.153,1.8,17.101c0.447,4.51-1.346,6.31-5.402,6.31h-82.348
				c-4.048,0.439-7.649-1.801-9.004-5.402c-0.892-4.056-1.793-8.098-2.694-12.153c-0.907-3.147-0.907-6.75-0.907-9.897
				c-15.292,13.952-34.194,23.85-54.449,29.707c-17.102,4.934-35.548,7.189-53.549,7.189c-18.001,0-35.548-2.255-52.196-8.096
				c-15.299-5.403-29.698-14.408-40.95-26.56c-12.598-13.499-21.602-29.239-26.998-46.779c-6.749-22.065-9.904-45.008-9.457-68.42
				V-15.384c-0.447-2.702,1.354-5.85,4.955-6.295c0.447,0,0.901,0,1.348,0h91.797c2.702-0.454,5.85,1.346,6.303,4.94
				c0,0.454,0,0.901,0,1.355v225.903c0,21.141,4.949,37.803,13.946,49.956c9.004,12.138,27.905,18.434,49.507,18.434
				c11.252,0,22.049-1.787,32.848-5.843c11.252-4.056,21.148-9.005,30.145-15.754v-273.15c0-3.148,2.255-5.396,6.75-5.396h91.805
				c2.247-0.445,5.396,1.348,5.396,4.049C808.492-16.739,808.492-16.285,808.492-15.838L808.492-15.838z"/>
		</g>
	</g>
</g>
</svg>
