<?xml version="1.0" encoding="utf-8"?>
<!-- Uploaded to: SVG Repo, www.svgrepo.com, Generator: SVG Repo Mixer Tools -->
<svg width="800px" height="800px" viewBox="0 -0.5 1025 1025" class="icon"  version="1.1" xmlns="http://www.w3.org/2000/svg"><path d="M1003.459898 687.637851h-71.962286c0-57.35244-46.48297-103.835409-103.83541-103.83541h-2.557522c-28.644251 0-54.603103 11.636727-73.400893 30.402548-18.79779 18.79779-30.402548 44.756642-30.402548 73.432862 0 57.35244 46.48297 103.835409 103.803441 103.835409h1.694358c18.478099 0 35.837283-4.827324 50.862727-13.299116h100.606538c-30.6583 50.606974-86.252443 84.36627-149.742937 84.36627h-4.315819c-96.610409 0-174.934532-78.324124-174.934532-174.902563 0-48.305204 19.565046-92.038837 51.246355-123.688177 31.64934-31.681309 75.382973-51.246355 123.688177-51.246355h4.315819c96.610409 0 174.934532 78.324124 174.934532 174.934532z" fill="#5FCEFF" /><path d="M371.400206 583.802441c57.03275 0 103.227998 46.227217 103.227998 103.227998 0 28.484406-11.54082 54.315382-30.210733 72.985296-18.701883 18.669914-44.50089 30.242702-73.017265 30.242702h-172.536855v-206.455996h172.536855z" fill="#FF4893" /><path d="M204.330055 443.618245h-5.466704v-209.94062h105.689613c52.365271 0 94.820143 42.454872 94.820143 94.852112v20.236396c0 52.333302-42.454872 94.852112-94.820143 94.852112h-100.222909z" fill="#FFB578" /><path d="M121.210577 790.258437v72.281977h-78.579875V163.345759h78.579875v614.828385z" fill="#5FCEFF" /><path d="M322.999095 535.625113a22.378321 22.378321 0 1 1 0-44.756642c40.738135 0 79.043427-15.872623 107.863507-44.692704 28.823277-28.794505 44.692704-67.122175 44.692704-107.927445 0-84.100927-68.436103-152.524242-152.556211-152.524242h-201.788518a22.378321 22.378321 0 1 1 0-44.756642h201.788518c108.8002 0 197.31605 88.499866 197.31605 197.280884 0 52.771278-20.530511 102.342456-57.809597 139.583179-37.269495 37.266298-86.815098 57.793612-139.506453 57.793612z" fill="#4F46A3" /><path d="M386.937155 884.918735h-261.570604a22.378321 22.378321 0 1 1 0-44.756642h261.570604c40.734938 0 79.043427-15.872623 107.863507-44.692704 28.823277-28.791308 44.689507-67.083813 44.689507-107.828341 0-84.120109-68.436103-152.559408-152.556211-152.559408a22.378321 22.378321 0 1 1 0-44.756642c108.797003 0 197.312853 88.51585 197.312853 197.312853 0 52.710537-20.530511 102.246549-57.809597 139.487272-37.266298 37.266298-86.811901 57.793612-139.500059 57.793612zM121.210577 800.552465a22.378321 22.378321 0 0 1-22.378321-22.378321V163.345759a22.378321 22.378321 0 1 1 44.756642 0v614.828385a22.378321 22.378321 0 0 1-22.378321 22.378321zM985.077706 441.284506h-317.420499a22.378321 22.378321 0 1 1 0-44.756642h317.420499a22.378321 22.378321 0 1 1 0 44.756642zM198.863351 441.284506a22.378321 22.378321 0 0 1-22.378321-22.378321v-186.315507a22.378321 22.378321 0 1 1 44.756642 0v186.315507a22.378321 22.378321 0 0 1-22.378321 22.378321z" fill="#4F46A3" /><path d="M399.373107 350.908058a22.378321 22.378321 0 0 1-22.378321-22.378321c0-39.961288-32.499716-72.473791-72.441822-72.473791h-100.222909a22.378321 22.378321 0 1 1 0-44.756642h100.222909c64.622197 0 117.198464 52.589054 117.198464 117.230433a22.378321 22.378321 0 0 1-22.378321 22.378321zM371.400206 812.636758h-172.536855a22.378321 22.378321 0 1 1 0-44.756642h172.536855c21.579095 0 41.895414-8.417446 57.208579-23.701839 15.242834-15.242834 23.644295-35.539971 23.644295-57.147838 0-44.580812-36.268865-80.849677-80.849677-80.849677h-172.536855a22.378321 22.378321 0 1 1 0-44.756642h172.536855c69.260903 0 125.606319 56.345415 125.606319 125.606319 0 33.564285-13.056152 65.101733-36.764385 88.809966-23.778565 23.733808-55.325603 36.796354-88.845131 36.796353zM42.630702 884.918735a22.378321 22.378321 0 0 1-22.378321-22.378321V163.345759a22.378321 22.378321 0 1 1 44.756642 0v699.194655a22.378321 22.378321 0 0 1-22.378321 22.378321zM828.525366 884.918735a22.378321 22.378321 0 1 1 0-44.756642c53.867816 0 102.687721-27.506153 130.603078-73.586313a22.378321 22.378321 0 1 1 38.279717 23.190334c-36.096232 59.580681-99.228672 95.152621-168.882795 95.152621zM1003.459898 710.016172a22.378321 22.378321 0 0 1-22.378321-22.378321c0-84.120109-68.436103-152.556211-152.559408-152.556211a22.378321 22.378321 0 0 1 0-44.756642c108.8002 0 197.31605 88.51585 197.31605 197.312853 0 12.362424-10.015897 22.378321-22.378321 22.378321z" fill="#4F46A3" /><path d="M824.209547 884.918735c-108.797003 0-197.312853-88.499866-197.312853-197.280884 0-52.729718 20.530511-102.281715 57.8064-139.522438 37.227935-37.263101 86.776735-57.793612 139.506453-57.793612a22.378321 22.378321 0 1 1 0 44.756642c-40.766907 0-79.069002 15.869426-107.857113 44.68631-28.829671 28.800899-44.695901 67.106191-44.695901 107.873098 0 84.104124 68.436103 152.524242 152.556211 152.524242a22.378321 22.378321 0 1 1-0.003197 44.756642z" fill="#4F46A3" /><path d="M1003.459898 710.016172h-271.289188a22.378321 22.378321 0 1 1 0-44.756642h271.289188a22.378321 22.378321 0 1 1 0 44.756642z" fill="#4F46A3" /><path d="M931.497612 710.016172a22.378321 22.378321 0 0 1-22.378321-22.378321c0-44.916487-36.540601-81.457088-81.453892-81.457089a22.378321 22.378321 0 1 1 0-44.756642c69.596578 0 126.210534 56.620349 126.210534 126.213731a22.378321 22.378321 0 0 1-22.378321 22.378321z" fill="#4F46A3" /><path d="M825.10468 813.851581c-69.580594 0-126.184958-56.617152-126.184958-126.210533 0-33.730524 13.123287-65.431014 36.962592-89.260729 23.874472-23.836109 55.55578-36.956199 89.222366-36.956199a22.378321 22.378321 0 1 1 0 44.756642c-21.726153 0-42.176741 8.471793-57.592208 23.861684-15.367513 15.364316-23.836109 35.824495-23.836108 57.598602 0 44.916487 36.527814 81.453892 81.428316 81.453891a22.378321 22.378321 0 1 1 0 44.756642zM386.937155 535.62831h-188.073804a22.378321 22.378321 0 0 1 0-44.756642h188.073804a22.378321 22.378321 0 1 1 0 44.756642zM121.210577 812.636758a22.378321 22.378321 0 0 1-22.378321-22.378321v-12.084293a22.378321 22.378321 0 1 1 44.756642 0v12.084293a22.378321 22.378321 0 0 1-22.378321 22.378321zM198.863351 453.976211a22.378321 22.378321 0 0 1-22.378321-22.378321v-12.691705a22.378321 22.378321 0 1 1 44.756642 0v12.691705a22.378321 22.378321 0 0 1-22.378321 22.378321z" fill="#4F46A3" /><path d="M198.863351 465.804752a22.378321 22.378321 0 0 1-22.378321-22.378321v-11.828541a22.378321 22.378321 0 1 1 44.756642 0v11.828541a22.378321 22.378321 0 0 1-22.378321 22.378321z" fill="#4F46A3" /></svg>