<?xml version="1.0" encoding="iso-8859-1"?>
<!-- Uploaded to: SVG Repo, www.svgrepo.com, Generator: SVG Repo Mixer Tools -->
<svg height="800px" width="800px" version="1.1" id="Layer_1" xmlns="http://www.w3.org/2000/svg" xmlns:xlink="http://www.w3.org/1999/xlink" 
	 viewBox="0 0 512 512" xml:space="preserve">
<g transform="translate(1)">
	<path style="fill:#FFE100;" d="M476.867,270.507c0-63.147-29.867-112.64-93.013-112.64h-17.92c-34.133,0-58.88,16.213-76.8,42.667
		c-5.973,5.973-8.533,8.533-8.533,8.533v-34.133c0-3.413-5.12-8.533-8.533-8.533h-85.333c-3.413,0-8.533,3.413-8.533,7.68v318.293
		c0,3.413,5.12,6.827,8.533,6.827H280.6c3.413,0,8.533-3.413,8.533-6.827v-184.32c0-31.573,23.893-58.027,55.467-58.88
		c16.213,0,30.72,5.973,41.813,17.067c10.24,10.24,14.507,24.747,14.507,40.96v183.467c0,3.413,5.12,8.533,8.533,8.533h59.733
		c3.413,0,8.533-5.12,8.533-8.533v-220.16H476.867z"/>
	<path style="fill:#FFA800;" d="M392.387,157.867h-8.533c63.147,0,93.013,49.493,93.013,112.64l0,0v220.16
		c0,3.413-5.12,8.533-8.533,8.533h25.6c3.413,0,8.533-5.12,8.533-8.533v-220.16l0,0C502.467,207.36,455.533,157.867,392.387,157.867
		"/>
	<path style="fill:#FFE100;" d="M105.667,499.2h-51.2c-6.827,0-12.8-7.68-12.8-17.067V183.467c0-9.387,5.12-17.067,11.947-17.067
		h52.053c6.827,0,12.8,7.68,12.8,17.067v299.52C118.467,491.52,112.493,499.2,105.667,499.2"/>
	<g>
		<path style="fill:#FFFFFF;" d="M41.667,482.133V183.467c0-9.387,5.12-17.067,11.947-17.067H101.4h-0.853H32.28
			c-9.387,0-16.213,7.68-16.213,17.067v298.667c0,9.387,7.68,17.067,17.067,17.067h20.48
			C47.64,498.347,41.667,490.667,41.667,482.133"/>
		<path style="fill:#FFFFFF;" d="M118.467,183.467L118.467,183.467L118.467,183.467L118.467,183.467"/>
	</g>
	<path style="fill:#FFE100;" d="M80.067,12.8c25.6,0,46.933,27.307,46.933,59.733c0,34.133-22.187,60.587-46.933,59.733
		c-24.747,0.853-46.933-25.6-46.933-59.733C33.133,39.253,54.467,12.8,80.067,12.8"/>
	<path style="fill:#FFFFFF;" d="M33.133,72.533c0-30.72,17.92-55.467,41.813-59.733c-2.56,0-5.12,0-6.827,0
		c-33.28,0-60.587,26.453-60.587,59.733c0,34.133,28.16,60.587,59.733,59.733c2.56,0,5.12,0,6.827,0
		C51.907,128.853,33.133,104.107,33.133,72.533"/>
	<path d="M68.973,140.8c-0.853,0-1.707,0-1.707,0c-17.067,0.853-34.987-6.827-47.787-19.627S-1,91.307-1,72.533
		c0-17.92,6.827-34.987,20.48-48.64c12.8-12.8,29.867-19.627,48.64-19.627l0,0l0,0c17.92,0,34.987,6.827,47.787,20.48
		c12.8,12.8,20.48,29.867,19.627,47.787c0,18.773-7.68,35.84-20.48,48.64S86.04,140.8,68.973,140.8z M67.267,123.733
		c13.653,0.853,26.453-5.12,35.84-14.507c10.24-9.387,15.36-23.04,15.36-36.693s-5.12-26.453-15.36-36.693
		C93.72,26.453,80.92,21.333,68.12,21.333l0,0c-14.507,0-27.307,5.12-36.693,14.507c-10.24,10.24-15.36,23.04-15.36,36.693
		s5.12,27.307,15.36,36.693C40.813,118.613,54.467,123.733,67.267,123.733z"/>
	<path d="M101.4,507.733H33.133c-13.653,0-25.6-11.947-25.6-25.6v-204.8c0-5.12,3.413-8.533,8.533-8.533s8.533,3.413,8.533,8.533
		v204.8c0,4.267,4.267,8.533,8.533,8.533H101.4c4.267,0,8.533-3.413,8.533-7.68v-299.52c0-4.267-4.267-8.533-8.533-8.533H32.28
		c-4.267,0-7.68,4.267-7.68,8.533v25.6c0,5.12-3.413,8.533-8.533,8.533s-8.533-3.413-8.533-8.533v-25.6
		c0-14.507,11.093-25.6,24.747-25.6h69.12c13.653,0,25.6,11.947,25.6,25.6v299.52C127,495.787,115.053,507.733,101.4,507.733z"/>
	<path d="M24.6,243.2c0-5.12-3.413-8.533-8.533-8.533s-8.533,3.413-8.533,8.533s3.413,8.533,8.533,8.533S24.6,248.32,24.6,243.2"/>
	<path d="M493.933,507.733H408.6c-8.533,0-17.067-8.533-17.067-17.067V307.2c0-15.36-3.413-27.307-11.947-34.987
		c-9.387-9.387-22.187-14.507-35.84-14.507c-26.453,0-46.933,22.187-46.933,50.347v184.32c0,9.387-9.387,15.36-17.067,15.36H185.88
		c-7.68,0-17.067-5.973-17.067-15.36V174.08c0-9.387,9.387-16.213,17.067-16.213h85.333c8.533,0,17.067,8.533,17.067,17.067v11.947
		c20.48-23.04,52.053-37.547,85.333-37.547h17.92C458.947,149.333,511,202.24,511,270.507v220.16
		C511,499.2,502.467,507.733,493.933,507.733z M409.453,490.667h83.627l0.853-0.853V270.507
		c0-58.027-44.373-104.107-101.547-104.107h-17.92c-31.573,0-61.44,15.36-78.507,39.253l-0.853,0.853l-23.04,23.04v-53.76
		l-0.853-0.853h-84.48l0,0v315.733H280.6V308.053c0-37.547,28.16-66.56,64-67.413c17.92,0,34.987,6.827,47.787,19.627
		C403.48,271.36,408.6,286.72,408.6,307.2L409.453,490.667C408.6,489.813,409.453,490.667,409.453,490.667z"/>
</g>
</svg>