<?xml version="1.0" encoding="UTF-8"?>
<svg id="Layer_2" xmlns="http://www.w3.org/2000/svg" viewBox="0 0 123.49 93.32">
  <defs>
    <style>
      .cls-1 {
        fill: #009fac;
      }
    </style>
  </defs>
  <g id="_图层_1" data-name="图层_1">
    <path class="cls-1" d="M123.47,46.66c0,14.54-.02,29.09.02,43.63,0,1.16-.21,1.51-1.47,1.49-5.57-.07-11.14-.03-16.72.02-.77,0-.97-.22-.91-.9.02-.31,0-.63,0-.95,0-22.88,0-45.76,0-68.64,0-1.95.25-1.69-1.76-1.7-3.76-.02-7.53-.03-11.28,0-.89.02-1.15-.25-1.14-1.14.03-5.3.02-10.6,0-15.9,0-.69.07-1.03.94-1.03,10.32.04,20.62.05,30.94,0,1.17,0,1.4.39,1.4,1.47-.03,14.54-.02,29.09-.02,43.63"/>
    <path class="cls-1" d="M65.57,68.06c-5.05,5.15-11.5,7.11-17.72,7.25-14.5,0-24.91-8.75-28.1-22.9-2.81-12.5,4.03-26.82,15.55-31.95,12.97-5.78,30.81-2.11,37.27,15.65,4.39,12.05,1.94,22.81-7.01,31.95M47.15,0C21.09-.02.02,20.75,0,46.49c-.02,25.82,20.92,46.82,46.67,46.83,26.05,0,47.1-20.7,47.13-46.33C93.82,20.7,73.3.02,47.15,0"/>
  </g>
</svg>